<?xml version="1.0" encoding="utf-8"?>
<!-- Generator: Adobe Illustrator 25.0.0, SVG Export Plug-In . SVG Version: 6.00 Build 0)  -->
<svg version="1.1" id="Layer_1" xmlns="http://www.w3.org/2000/svg" xmlns:xlink="http://www.w3.org/1999/xlink" x="0px" y="0px"
	 viewBox="0 0 1080 1032.4" style="enable-background:new 0 0 1080 1032.4;" xml:space="preserve">
<path d="M477.1,47.3c75.4,34.4,134.7,84.5,172,158.3c37.4,74.1,39.4,152.1,23.4,232c14.8-8.7,34.4-32.8,60.6-74.6
	c11.2,12.8,22.7,24.8,33,37.7c46.8,58.9,78.7,124.7,92.1,199.3c17.5,97.3-7.1,183.2-69.2,258.9c-38,46.3-83.5,83.1-139.3,106.1
	c-16.6,6.9-33.8,11.6-53.5,11.8c1.7-3.3,2.9-5.6,4.2-7.9c19.7-36.4,33.9-74.6,38.2-116.1c4.6-45.2-5.3-85.9-36.3-120.7
	c-30.4-34.2-55.9-71.7-69.4-116.1c-10-32.8-12.6-65.7,0.3-98.5c0.2-0.6,0-1.4,0-4.2c-13.2,10.1-25.7,18.8-37.3,28.6
	c-45.4,38.2-80.8,83.7-99.3,140.7c-21.3,65.4-13.4,129.1,13.2,191.4c14.5,33.8,33.6,65,55.5,94.4c1.8,2.4,3.6,4.9,5.4,7.3
	c-0.4,0.9-0.9,1.7-1.3,2.6c-22.4-7.8-45.3-14.5-67.2-23.7c-61.7-26-113.5-64.8-149.8-122.1c-32.6-51.4-45.2-108.1-45.1-168.4
	c0.1-68,24.1-127.2,66.9-178.6c28.2-33.9,59.2-65.5,89.5-97.6c29.6-31.4,58.8-63.1,81.5-100.1c34.9-57.1,47.6-119,40.3-185.2
	c-1.8-16.2-5.1-32.3-7.6-48.4C477.2,52.4,477.3,50.6,477.1,47.3z"/>
</svg>
